<?xml version="1.0" encoding="utf-8"?>
<!-- Generator: Adobe Illustrator 22.0.0, SVG Export Plug-In . SVG Version: 6.00 Build 0)  -->
<svg version="1.1" id="Layer_1" xmlns="http://www.w3.org/2000/svg" xmlns:xlink="http://www.w3.org/1999/xlink" x="0px" y="0px"
	 viewBox="0 0 87.5 15.5" style="enable-background:new 0 0 87.5 15.5;" xml:space="preserve">
<style type="text/css">
	.st0{fill:none;stroke:#000000;stroke-width:1.5;stroke-linecap:round;stroke-linejoin:round;}
</style>
<g transform="matrix( 1, 0, 0, 1, 0,0) ">
	<g>
		<path id="a_2_" class="st0" d="M75.4,6l3.2,6.1 M48.7,6.6L54,1l1.7,1.7c1.4,1.3,2.9,2.3,4.5,3.2c2.2,1.1,4.5,1.7,6.7,1.8
			c0.9,0,1.7,0,2.6-0.1c4.1-0.6,8-2.8,11.8-6.8l5.4,5.9 M66.9,7.7v7 M60.2,5.9l-4.2,6 M19,14.7v-7c-2.2-0.1-4.5-0.7-6.7-1.8l-4.2,6
			 M0.8,6.6L6.1,1l1.7,1.7c1.4,1.3,2.9,2.3,4.6,3.2 M19,7.7c0.9,0,1.7,0,2.5-0.1c4.1-0.6,8-2.8,11.9-6.8l5.3,5.9 M27.5,6l3.2,6.1"/>
	</g>
</g>
</svg>
