<svg xmlns="http://www.w3.org/2000/svg" xmlns:xlink="http://www.w3.org/1999/xlink" width="32" height="32" viewBox="0 0 32 32"><defs><style>.a{fill:#f7e4a6;}.b{fill:#383838;}.c{clip-path:url(#a);}.d{clip-path:url(#b);}</style><clipPath id="a"><circle class="a" cx="16" cy="16" r="16" transform="translate(1989 14)"/></clipPath><clipPath id="b"><path class="b" d="M0,5.561H7.711v-16.12H0Z" transform="translate(0 10.559)"/></clipPath></defs><g transform="translate(-1824 -20)"><circle class="a" cx="16" cy="16" r="16" transform="translate(1824 20)"/><g class="c" transform="translate(-165 6)"><g transform="translate(2001.391 32.558)"><g class="d" transform="translate(0 -10.559)"><g transform="translate(0 0)"><path class="b" d="M2.66,1.8H.034V.127a.691.691,0,0,1,.73-.774H2.617V-3.41L.065-3.419A3.18,3.18,0,0,0-3.413-.04V1.8H-5.051V4.646h1.638V12.7H.034V4.646H2.359Z" transform="translate(5.051 3.419)"/></g></g></g></g></g></svg>