<svg xmlns="http://www.w3.org/2000/svg" xmlns:xlink="http://www.w3.org/1999/xlink" width="32" height="32" viewBox="0 0 32 32"><defs><style>.a{fill:#383838;}.b{fill:#f7e4a6;}.c{clip-path:url(#a);}</style><clipPath id="a"><path class="a" d="M0,5.518H16.077V-10.559H0Z" transform="translate(0 10.559)"/></clipPath></defs><g transform="translate(-1864 -20)"><circle class="b" cx="16" cy="16" r="16" transform="translate(1864 20)"/><g transform="translate(1872.241 38.359)"><g class="c" transform="translate(0 -10.559)"><g transform="translate(3.903 3.857)"><path class="a" d="M1.419,0A4.136,4.136,0,1,0,5.555,4.137,4.141,4.141,0,0,0,1.419,0m0,6.792A2.656,2.656,0,1,1,4.076,4.137,2.66,2.66,0,0,1,1.419,6.792" transform="translate(2.716)"/></g><g transform="translate(11.391 2.817)"><path class="a" d="M.322,0a.939.939,0,1,0,.939.939A.939.939,0,0,0,.322,0" transform="translate(0.617)"/></g><g transform="translate(0 0)"><path class="a" d="M5.073.452a4.667,4.667,0,0,0-3.4-1.316H-5.008a4.45,4.45,0,0,0-4.7,4.7v6.639a4.689,4.689,0,0,0,1.354,3.462A4.74,4.74,0,0,0-4.97,15.213h6.6A4.757,4.757,0,0,0,5.045,13.94a4.654,4.654,0,0,0,1.325-3.427V3.836A4.678,4.678,0,0,0,5.073.452M4.889,10.513a3.213,3.213,0,0,1-.879,2.369,3.313,3.313,0,0,1-2.378.851h-6.6a3.3,3.3,0,0,1-2.354-.857,3.249,3.249,0,0,1-.9-2.4V3.836a3.243,3.243,0,0,1,.866-2.363A3.253,3.253,0,0,1-5.008.616H1.669a3.218,3.218,0,0,1,2.354.879,3.236,3.236,0,0,1,.866,2.342Z" transform="translate(9.708 0.864)"/></g></g></g></g></svg>