<?xml version="1.0" encoding="utf-8"?>
<!-- Generator: Adobe Illustrator 22.0.0, SVG Export Plug-In . SVG Version: 6.00 Build 0)  -->
<svg version="1.1" id="Layer_1" xmlns="http://www.w3.org/2000/svg" xmlns:xlink="http://www.w3.org/1999/xlink" x="0px" y="0px"
	 viewBox="0 0 119.9 17.4" style="enable-background:new 0 0 119.9 17.4;" xml:space="preserve">
<style type="text/css">
	.cream-class{fill:#F7E4A6;}
	.st1{fill:none;}
</style>
<path class="cream-class" d="M29.8,17.2L29.8,17.2L8.7,1.6v15.3h0c0,0.1,0,0.2-0.1,0.2c0,0.1-0.1,0.1-0.1,0.1c0,0,0,0,0,0
	c-0.1,0-0.1,0.1-0.2,0.1c0,0,0,0,0,0c-0.1,0-0.1,0-0.2,0v0c-0.1,0-0.2,0-0.3,0c0,0,0,0-0.1,0c0,0,0,0,0,0v0l0,0h0l0,0
	c-0.1,0-0.1-0.1-0.1-0.2c0-0.1,0-0.1,0-0.2V0.6c0-0.1,0-0.2,0.1-0.3c0,0,0,0,0,0c0,0,0,0,0,0c0,0,0,0,0.1-0.1c0,0,0.1-0.1,0.2-0.1v0
	c0,0,0,0,0,0c0.1,0,0.1,0,0.2,0v0h0c0.1,0,0.2,0,0.2,0c0,0,0,0,0,0c0,0,0,0,0,0l0,0h0c0.1,0,0.1,0.1,0.2,0.1c0,0,0,0,0,0
	c0,0,0,0,0.1,0c0,0,0,0,0,0l21.1,15.5V0.6h0c0-0.1,0-0.2,0.1-0.3c0,0,0,0,0,0c0,0,0,0,0,0l0,0c0,0,0.1-0.1,0.1-0.1c0,0,0,0,0,0
	c0.1,0,0.1,0,0.2,0v0h0c0.1,0,0.1,0,0.2,0c0.1,0,0.1,0,0.2,0.1v0h0c0.1,0,0.1,0.1,0.1,0.1c0,0,0,0,0,0c0,0.1,0,0.1,0,0.2v16.3
	c0,0.1,0,0.2-0.1,0.3c0,0,0,0,0,0.1h0c0,0,0,0,0,0v0l0,0c-0.1,0-0.1,0.1-0.2,0.1c-0.1,0-0.1,0-0.2,0v0c-0.1,0-0.3,0-0.4-0.1
	c0,0,0,0-0.1,0C29.9,17.2,29.9,17.2,29.8,17.2C29.9,17.2,29.8,17.2,29.8,17.2C29.8,17.2,29.8,17.2,29.8,17.2 M64,0.7
	C64,0.8,64,0.7,64,0.7L64,0.7z M35.1,0.1c0,0,0.1,0,0.1,0v0l0,0c0,0,0.1,0,0.1,0.1c0,0,0,0,0,0c0,0,0.1,0.1,0.1,0.1l13.7,15.9
	L63,0.3c0,0,0,0,0.1-0.1c0,0,0.1,0,0.1-0.1c0,0,0.1,0,0.1,0c0,0,0.1,0,0.1,0h0c0,0,0.1,0,0.1,0v0c0.1,0,0.2,0,0.2,0c0,0,0,0,0,0
	c0,0,0,0,0,0c0,0,0,0,0,0v0l0,0c0.1,0,0.1,0.1,0.2,0.1l0,0l0,0C64,0.4,64,0.5,64,0.6h0c0,0,0,0.1,0,0.1c0,0,0,0,0,0
	c0,0,0,0.1-0.1,0.1L49.7,17.1c0,0,0,0,0,0c0,0,0,0,0,0l0,0c0,0,0,0,0,0c-0.1,0.1-0.1,0.1-0.2,0.2c-0.1,0.1-0.2,0.1-0.3,0.1
	c-0.1,0-0.2,0-0.3-0.1c-0.1,0-0.2-0.1-0.3-0.2v0c0,0,0,0,0,0c0,0,0,0,0,0l0,0c0,0,0,0,0,0L34.5,0.9c0,0,0,0,0,0c0,0,0,0,0,0l0,0
	c0,0,0,0,0,0l0,0c0,0,0,0,0,0c0,0,0-0.1,0-0.1c0,0,0-0.1,0-0.1c0-0.1,0-0.2,0.1-0.3c0,0,0,0,0,0c0,0,0,0,0,0c0,0,0,0,0,0v0l0,0
	c0.1,0,0.1-0.1,0.2-0.1h0c0.1,0,0.1,0,0.2,0C35,0.1,35,0.1,35.1,0.1 M67.4,17c0-0.1-0.1-0.2-0.1-0.3v-4.3h-2.7v0c-0.1,0-0.2,0-0.3,0
	c0,0,0,0-0.1,0c0,0,0,0,0,0c0,0,0,0,0,0h0v0c0,0-0.1-0.1-0.1-0.1c0,0,0,0,0,0c0,0,0,0,0,0v0c0,0,0,0,0,0c0-0.1-0.1-0.1-0.1-0.2h0
	c0-0.1,0-0.2,0.1-0.3c0,0,0,0,0,0c0,0,0,0,0,0c0,0,0,0,0.1,0v0l0,0c0,0,0.1,0,0.2,0l0,0c0.1,0,0.1,0,0.2,0v0h0v0h2.7V0.7
	c0-0.1,0-0.2,0.1-0.3c0.1-0.1,0.1-0.1,0.2-0.1c0.1,0,0.1,0,0.2,0c0,0,0,0,0,0c0.1,0,0.2,0,0.3,0h0v0h18.3c0.1,0,0.2,0,0.3,0.1v0
	c0,0,0,0,0.1,0c0,0,0,0,0,0c0,0,0,0,0,0h0l0,0h0c0.1,0,0.1,0.1,0.2,0.1c0,0.1,0.1,0.2,0.1,0.2c0,0.1,0,0.2-0.1,0.3h0c0,0,0,0-0.1,0
	c0,0,0,0,0,0c0,0,0,0,0,0c0,0-0.1,0-0.1,0c0,0,0,0,0,0c0,0,0,0,0,0v0l0,0c-0.1,0-0.1,0-0.2,0v0h0H68.6v10.3h18.6v0
	c0.1,0,0.1,0,0.2,0c0.1,0,0.1,0,0.2,0.1c0.1,0,0.1,0.1,0.1,0.1c0,0,0,0,0,0c0,0,0,0,0,0h0c0,0.1,0.1,0.2,0.1,0.2h0
	c0,0.2-0.1,0.3-0.2,0.4c0,0,0,0,0,0c-0.1,0-0.1,0-0.2,0.1c-0.1,0-0.1,0-0.2,0H68.6v4h18.1v0c0.1,0,0.2,0,0.2,0v0c0,0,0,0,0,0
	c0,0,0,0,0,0v0c0.1,0,0.1,0.1,0.2,0.1v0c0.1,0.1,0.1,0.2,0.1,0.3c0,0.1,0,0.2,0,0.2c0,0.1-0.1,0.2-0.2,0.2l0,0c0,0-0.1,0-0.2,0.1
	c0,0,0,0,0,0c-0.1,0-0.1,0-0.2,0v0h0H68.3v0c-0.1,0-0.3,0-0.4,0c-0.1,0-0.2-0.1-0.3-0.1C67.6,17.2,67.5,17.1,67.4,17
	C67.4,17,67.4,17,67.4,17 M92,12.5c-0.1-0.2-0.2-0.3-0.3-0.4c-0.4-0.5-0.7-1.1-0.9-1.7c-0.2-0.6-0.3-1.1-0.3-1.7
	c0-0.6,0.1-1.2,0.3-1.7c0.2-0.6,0.5-1.1,0.9-1.6c0,0,0,0,0,0c0.4-0.5,0.8-1,1.4-1.5c0.5-0.5,1.2-0.9,1.8-1.3
	c0.7-0.4,1.4-0.8,2.2-1.1c0.8-0.3,1.6-0.6,2.5-0.8c0.9-0.2,1.8-0.4,2.7-0.5c0.9-0.1,1.9-0.2,2.9-0.2v0c1.4,0,2.8,0.1,4.1,0.3
	c0.2,0,0.5,0.1,0.8,0.1c0.3,0.1,0.5,0.1,0.8,0.2l0,0c0.9,0.2,1.7,0.5,2.5,0.8c0.8,0.3,1.5,0.7,2.2,1.1v0v0c0.7,0.4,1.3,0.8,1.8,1.3
	c0.5,0.5,1,1,1.4,1.5c0.3,0.5,0.6,0.9,0.8,1.4c0,0.1,0.1,0.2,0.1,0.3c0.2,0.6,0.3,1.2,0.3,1.8h0v0c0,0.5-0.1,1-0.2,1.5
	c-0.1,0.5-0.4,1-0.7,1.5c-0.4,0.7-1,1.3-1.6,1.9c-0.1,0.1-0.3,0.2-0.4,0.3c-0.1,0.1-0.3,0.2-0.4,0.3c0,0,0,0,0,0l0,0h0
	c-1,0.7-2.1,1.3-3.5,1.8c-0.2,0.1-0.5,0.2-0.8,0.3c-0.3,0.1-0.5,0.2-0.8,0.2h0c-1,0.3-2,0.5-3.1,0.6c-1,0.1-2.1,0.2-3.2,0.2v0
	c-1.4,0-2.7-0.1-4-0.3c-0.2,0-0.5-0.1-0.8-0.1c-0.2,0-0.5-0.1-0.8-0.2l0,0c-0.9-0.2-1.7-0.5-2.5-0.8c-0.8-0.3-1.5-0.7-2.2-1.1
	c-1-0.6-1.8-1.2-2.5-1.9C92.3,12.8,92.1,12.7,92,12.5 M93,5.5L93,5.5L93,5.5L93,5.5L93,5.5c-0.4,0.4-0.6,0.9-0.9,1.3
	C92.1,6.9,92,7,92,7.1c-0.2,0.5-0.3,1.1-0.3,1.6h0v0c0,0.5,0.1,1,0.2,1.4c0.2,0.5,0.4,1,0.8,1.4c0.3,0.5,0.8,0.9,1.2,1.4
	c0.5,0.4,1,0.8,1.7,1.2c0,0,0,0,0,0c0.6,0.4,1.3,0.7,2.1,1c0.7,0.3,1.5,0.5,2.4,0.7c0.8,0.2,1.7,0.4,2.6,0.5
	c0.9,0.1,1.7,0.2,2.6,0.2c0.9,0,1.8-0.1,2.6-0.2c0.9-0.1,1.7-0.3,2.6-0.5c1.2-0.3,2.3-0.7,3.3-1.1c0.2-0.1,0.4-0.2,0.6-0.3
	c0.2-0.1,0.4-0.2,0.6-0.3h0c0.9-0.5,1.7-1.1,2.3-1.7c0.1-0.1,0.2-0.2,0.3-0.4c0,0,0,0,0,0c0.1-0.1,0.2-0.2,0.3-0.4l0,0l0,0v0l0,0
	c0.3-0.5,0.6-0.9,0.7-1.4c0.2-0.5,0.2-1,0.2-1.5c0-0.5-0.1-1-0.2-1.5c-0.2-0.5-0.4-1-0.7-1.4c-0.5-0.7-1.1-1.3-1.9-1.9
	c-0.1-0.1-0.3-0.2-0.5-0.3c-0.2-0.1-0.3-0.2-0.5-0.3v0c-0.6-0.4-1.3-0.7-2-1s-1.5-0.5-2.3-0.7c-0.8-0.2-1.7-0.3-2.5-0.4
	C107,1,106.1,1,105.2,1c-1.1,0-2.3,0.1-3.3,0.2c-0.2,0-0.4,0.1-0.6,0.1c-0.2,0-0.4,0.1-0.6,0.1l0,0c-0.7,0.2-1.4,0.3-2.1,0.6
	c-0.7,0.2-1.3,0.5-1.9,0.8h0c-1.1,0.5-2.1,1.2-2.8,1.9c-0.1,0.1-0.3,0.3-0.4,0.4C93.2,5.2,93.1,5.3,93,5.5L93,5.5z M0,17.1
	c0-0.1,0-0.1,0-0.2V0.6c0-0.1,0-0.2,0.1-0.2c0-0.1,0.1-0.1,0.2-0.2h0c0.1,0,0.2-0.1,0.3-0.1h0c0,0,0,0,0.1,0c0,0,0,0,0,0
	c0,0,0,0,0,0c0.1,0,0.1,0,0.2,0c0.1,0,0.1,0,0.2,0.1h0l0,0c0,0,0.1,0.1,0.1,0.1c0,0,0,0,0,0c0,0,0,0,0,0v0c0,0.1,0,0.1,0,0.2h0v0
	v16.3c0,0.1,0,0.2-0.1,0.2c0,0.1-0.1,0.1-0.1,0.1c0,0,0,0,0,0c0,0-0.1,0-0.1,0.1c0,0,0,0,0,0c0,0,0,0,0,0c0,0,0,0,0,0
	c-0.1,0-0.1,0-0.2,0v0h0c-0.1,0-0.1,0-0.2,0c-0.1,0-0.1,0-0.2-0.1c0,0,0,0,0,0C0.1,17.3,0.1,17.2,0,17.1C0,17.1,0,17.1,0,17.1"/>
<rect y="0" class="st1" width="119.9" height="17.4"/>
</svg>
