<svg xmlns="http://www.w3.org/2000/svg" xmlns:xlink="http://www.w3.org/1999/xlink" width="128" height="63.657" viewBox="0 0 128 63.657"><defs><style>.a{fill:none;}.b{clip-path:url(#a);}.c{fill:#fff;}</style><clipPath id="a"><rect class="a" width="128" height="63.657"/></clipPath></defs><g class="b"><path d="M5,0H120.391A7.609,7.609,0,0,1,128,7.609V40.391A7.609,7.609,0,0,1,120.391,48H7.609A7.609,7.609,0,0,1,0,40.391V5A5,5,0,0,1,5,0Z"/><path d="M0,0H22.142a0,0,0,0,1,0,0V17.142a5,5,0,0,1-5,5H0a0,0,0,0,1,0,0V0A0,0,0,0,1,0,0Z" transform="translate(64.343 32.343) rotate(45)"/><path class="c" d="M51.562,44.7l0,0L32.74,30.833V44.491h0a.381.381,0,0,1-.06.207.429.429,0,0,1-.117.124l-.025.017a.58.58,0,0,1-.159.065l-.016,0a.846.846,0,0,1-.18.02h0a.578.578,0,0,1-.23-.042l-.047-.02-.046-.03h0a.38.38,0,0,1-.127-.159.471.471,0,0,1-.036-.182V29.927a.5.5,0,0,1,.07-.274.177.177,0,0,1,.022-.031l.02-.026a.426.426,0,0,1,.055-.047h0A.464.464,0,0,1,32,29.483h0l.027-.007a.678.678,0,0,1,.158-.017v0h0a.959.959,0,0,1,.2.022l.016,0,.039.011.014,0h0a.273.273,0,0,1,.149.1l.023.015.055.042.033.027,18.857,13.87V29.911h0a.4.4,0,0,1,.1-.265.31.31,0,0,1,.034-.039.329.329,0,0,1,.037-.032h0a.459.459,0,0,1,.121-.075.217.217,0,0,1,.027-.01.467.467,0,0,1,.17-.031v0h0a.891.891,0,0,1,.183.018.507.507,0,0,1,.18.068h0a.443.443,0,0,1,.129.133.278.278,0,0,1,.02.032.475.475,0,0,1,.043.2V44.458a.5.5,0,0,1-.066.261c-.012.018-.023.034-.034.049h0c-.016.016-.03.032-.042.043h0l0,0a.442.442,0,0,1-.177.091.725.725,0,0,1-.176.022h0a.747.747,0,0,1-.368-.1l-.064-.039-.041-.03a.511.511,0,0,1-.06-.041l-.023-.018m30.511-14.64s0,0,0,0Zm-25.823-.59a.506.506,0,0,1,.1.028h0l0,0a.49.49,0,0,1,.1.055l.021.016a.808.808,0,0,1,.085.086L68.794,43.834,81.162,29.656a.3.3,0,0,1,.053-.05.813.813,0,0,1,.076-.05.731.731,0,0,1,.082-.041.482.482,0,0,1,.1-.031h0a.616.616,0,0,1,.1-.011v0a.817.817,0,0,1,.2.023l.028.009.046.016.044.02h0l.006,0a.438.438,0,0,1,.15.133h0a.376.376,0,0,1,.064.213h0a.3.3,0,0,1-.025.119c0,.009-.009.018-.017.032a.258.258,0,0,1-.052.089L69.321,44.689l-.015.016-.026.028h0l-.018.018a.751.751,0,0,1-.167.14.486.486,0,0,1-.245.069.719.719,0,0,1-.286-.059.789.789,0,0,1-.241-.159v0l-.014-.014-.022-.027,0-.006a.231.231,0,0,1-.015-.022L55.716,30.155a.336.336,0,0,1-.042-.042h0l-.006-.009,0,0-.011-.016,0,0-.009-.015a.357.357,0,0,1-.031-.075.361.361,0,0,1-.009-.08.388.388,0,0,1,.13-.292l.041-.034.032-.023.02-.01v0a.53.53,0,0,1,.145-.068h0a.554.554,0,0,1,.172-.027.59.59,0,0,1,.1.011M85.15,44.52a.722.722,0,0,1-.046-.262V40.406H82.719a.7.7,0,0,1-.247-.043.347.347,0,0,1-.048-.021L82.4,40.33a.11.11,0,0,1-.028-.016h0a.408.408,0,0,1-.095-.082.153.153,0,0,1-.023-.027l-.009-.012h0l-.011-.016a.416.416,0,0,1-.057-.209h0a.373.373,0,0,1,.112-.278.346.346,0,0,1,.031-.027l.016-.014a.543.543,0,0,1,.053-.031h0l0,0a.5.5,0,0,1,.135-.042l.027,0a1.228,1.228,0,0,1,.166-.01H85.1V30a.367.367,0,0,1,.123-.277.541.541,0,0,1,.212-.121,1.11,1.11,0,0,1,.191-.044l.041-.006a2.042,2.042,0,0,1,.265-.015H102.3a.614.614,0,0,1,.251.05h0a.224.224,0,0,1,.046.022l.02.012a.089.089,0,0,1,.023.014h0a.53.53,0,0,1,.134.133.374.374,0,0,1,.068.213.357.357,0,0,1-.127.281h0c-.016.014-.032.026-.044.034h0l-.02.012-.027.015a.523.523,0,0,1-.122.041l-.011,0-.026,0h0a.909.909,0,0,1-.162.012H86.176v9.17h16.6a.7.7,0,0,1,.174.021.591.591,0,0,1,.161.071.462.462,0,0,1,.113.1l.009.011.021.028h0a.383.383,0,0,1,.064.213h0a.357.357,0,0,1-.2.332l-.018.01a.581.581,0,0,1-.164.053,1,1,0,0,1-.165.012h-16.6v3.6H102.3a.712.712,0,0,1,.223.031l.043.015.042.017h0a.4.4,0,0,1,.154.114v0a.341.341,0,0,1,.084.225.488.488,0,0,1-.038.193.383.383,0,0,1-.16.178h0a.5.5,0,0,1-.143.049l-.026.006a.981.981,0,0,1-.172.012H85.936a2.417,2.417,0,0,1-.33-.018.68.68,0,0,1-.272-.087.462.462,0,0,1-.177-.209l-.007-.018m21.915-3.953c-.112-.137-.214-.268-.306-.4h0a5.917,5.917,0,0,1-.782-1.478,4.635,4.635,0,0,1-.265-1.532,4.75,4.75,0,0,1,.262-1.551,5.872,5.872,0,0,1,.767-1.471l.01-.016a7.849,7.849,0,0,1,1.236-1.356,10.387,10.387,0,0,1,1.639-1.168,13.792,13.792,0,0,1,1.973-.946,17.158,17.158,0,0,1,2.238-.693,20.094,20.094,0,0,1,2.432-.423,22.262,22.262,0,0,1,2.551-.143h0a22.237,22.237,0,0,1,3.664.293c.223.037.449.078.682.126s.468.1.672.145h0a17.115,17.115,0,0,1,2.242.693,13.7,13.7,0,0,1,1.975.946h0a10.6,10.6,0,0,1,1.636,1.167,7.77,7.77,0,0,1,1.22,1.345,5.923,5.923,0,0,1,.672,1.234c.03.078.06.159.089.247a4.955,4.955,0,0,1,.256,1.566h0a4.87,4.87,0,0,1-.2,1.366,5.5,5.5,0,0,1-.586,1.307,7.382,7.382,0,0,1-1.471,1.7c-.117.1-.239.2-.368.3s-.251.193-.38.284l-.01.009h0a13.033,13.033,0,0,1-3.09,1.6c-.222.081-.454.161-.7.24s-.484.149-.732.218h0a20.254,20.254,0,0,1-2.734.556,21.515,21.515,0,0,1-2.838.185h0a21.143,21.143,0,0,1-3.591-.3q-.334-.057-.681-.13c-.224-.047-.449-.1-.676-.151l0,0a17.94,17.94,0,0,1-2.263-.705,14.6,14.6,0,0,1-1.98-.95,9.879,9.879,0,0,1-2.224-1.733c-.114-.122-.228-.25-.337-.384m.865-6.3h0l0,0h0a5.615,5.615,0,0,0-.759,1.2c-.033.074-.068.151-.1.235a4,4,0,0,0-.283,1.46h0a3.924,3.924,0,0,0,.223,1.295,5.073,5.073,0,0,0,.681,1.278,7.192,7.192,0,0,0,1.1,1.2A9.716,9.716,0,0,0,110.265,42l.011.006a13.212,13.212,0,0,0,1.829.871,17.1,17.1,0,0,0,2.11.656,18.951,18.951,0,0,0,2.279.41,19.617,19.617,0,0,0,2.341.138,20.248,20.248,0,0,0,2.35-.135,19.107,19.107,0,0,0,2.277-.407,16.086,16.086,0,0,0,2.955-1.015q.264-.122.512-.25t.492-.267a8.742,8.742,0,0,0,2.01-1.552c.1-.106.193-.213.282-.32l.011-.015c.091-.111.175-.222.252-.331l0-.009h0l0,0a4.909,4.909,0,0,0,.655-1.273,4.167,4.167,0,0,0,.215-1.33,4.3,4.3,0,0,0-.215-1.344,5.014,5.014,0,0,0-.656-1.287,7.148,7.148,0,0,0-1.682-1.675c-.133-.1-.274-.2-.425-.293s-.3-.188-.457-.282a13.136,13.136,0,0,0-1.829-.878,15.627,15.627,0,0,0-2.075-.64,18.739,18.739,0,0,0-2.27-.4,21.792,21.792,0,0,0-2.412-.132h0a20.725,20.725,0,0,0-2.976.209c-.181.026-.368.058-.559.091s-.375.068-.54.1l-.011,0a17.214,17.214,0,0,0-1.876.5,14.823,14.823,0,0,0-1.71.686h0a10.226,10.226,0,0,0-2.516,1.671c-.133.123-.258.249-.379.375s-.226.25-.33.378ZM25,44.659a.5.5,0,0,1-.027-.169V29.911a.415.415,0,0,1,.052-.2.4.4,0,0,1,.149-.149h0a.616.616,0,0,1,.225-.075h0a.457.457,0,0,1,.046,0l.028,0a.191.191,0,0,1,.038,0,.807.807,0,0,1,.159.016.407.407,0,0,1,.172.075h0a.377.377,0,0,1,.1.116l.014.027.012.028v0A.489.489,0,0,1,26,29.91h0v14.58a.379.379,0,0,1-.06.208h0a.431.431,0,0,1-.123.127l-.017.012a.549.549,0,0,1-.122.057l-.017,0-.017.006-.01,0a.8.8,0,0,1-.175.02h0a.69.69,0,0,1-.167-.018.415.415,0,0,1-.164-.074l-.014-.011a.381.381,0,0,1-.1-.132A.208.208,0,0,1,25,44.659" transform="translate(-13.929 -12.909)"/></g></svg>