<svg xmlns="http://www.w3.org/2000/svg" width="171.263" height="69.993" viewBox="0 0 171.263 69.993"><defs><style>.a{fill:none;stroke:#f7e4a6;stroke-linecap:round;stroke-linejoin:round;stroke-width:2.5px;}</style></defs><g transform="translate(-736.75 -4082)"><path d="M243.929,839.353a42.307,42.307,0,0,1,15.061-12.934,42.281,42.281,0,0,1,40.332,0,42.307,42.307,0,0,1,15.061,12.934,2.577,2.577,0,0,1-2.869,3.938l-.1-.03c-5.918-1.848-11.391-3.661-16.752-4.948a58.751,58.751,0,0,0-31.018,0c-5.361,1.287-10.834,3.1-16.752,4.948l-.085.026a2.576,2.576,0,0,1-2.881-3.934Z" transform="translate(494.657 3260.7)"/><path d="M339.5,839.353a42.312,42.312,0,0,1,15.06-12.934,42.283,42.283,0,0,1,40.333,0,42.316,42.316,0,0,1,15.061,12.934,2.577,2.577,0,0,1-2.869,3.938l-.1-.03c-5.918-1.848-11.392-3.661-16.752-4.948a58.751,58.751,0,0,0-31.018,0c-5.361,1.287-10.835,3.1-16.752,4.948l-.085.026a2.576,2.576,0,0,1-2.881-3.934Z" transform="translate(494.657 3260.7)"/><g transform="translate(494.657 3260.7)"><path class="a" d="M389.931,872.873l6.181,11.872M337.34,873.952l10.6-10.793,3.237,3.336a42.174,42.174,0,0,0,8.831,6.181,32.937,32.937,0,0,0,13.148,3.533,44.3,44.3,0,0,0,5.1-.295q11.97-1.668,23.254-13.344l10.6,11.48m-38.953,2.159v13.834m-13.148-17.367-8.34,11.676m-72.509,5.691V876.209a32.937,32.937,0,0,1-13.148-3.533l-8.34,11.676m-14.325-10.4,10.5-10.793,3.238,3.336a41.133,41.133,0,0,0,8.929,6.181m13.148,3.533a41.8,41.8,0,0,0,5-.295q11.97-1.668,23.352-13.344l10.5,11.48m-22.077-1.177,6.181,11.872"/></g></g></svg>