<svg xmlns="http://www.w3.org/2000/svg" width="171.263" height="69.993" viewBox="0 0 171.263 69.993"><defs><style>.a{fill:#f7e4a6;}.b{fill:none;stroke:#000;stroke-linecap:round;stroke-linejoin:round;stroke-width:2.5px;}</style></defs><g transform="translate(-459.75 -4082)"><path class="a" d="M719.243,839.353A42.316,42.316,0,0,1,734.3,826.419a42.283,42.283,0,0,1,40.333,0A42.316,42.316,0,0,1,789.7,839.353a2.577,2.577,0,0,1-2.869,3.938l-.1-.03c-5.918-1.848-11.392-3.661-16.752-4.948a58.755,58.755,0,0,0-31.019,0c-5.36,1.287-10.834,3.1-16.752,4.948l-.084.026a2.577,2.577,0,0,1-2.882-3.934Z" transform="translate(-257.657 3260.7)"/><path class="a" d="M814.81,839.353a42.316,42.316,0,0,1,15.061-12.934,42.283,42.283,0,0,1,40.333,0,42.324,42.324,0,0,1,15.061,12.934,2.577,2.577,0,0,1-2.869,3.938l-.1-.03c-5.918-1.848-11.392-3.661-16.753-4.948a58.751,58.751,0,0,0-31.018,0c-5.36,1.287-10.834,3.1-16.752,4.948l-.084.026a2.577,2.577,0,0,1-2.882-3.934Z" transform="translate(-257.657 3260.7)"/><g transform="translate(-257.657 3260.7)"><path class="b" d="M865.246,872.873l6.181,11.872m-58.773-10.793,10.6-10.793,3.238,3.336a42.149,42.149,0,0,0,8.831,6.181,32.933,32.933,0,0,0,13.147,3.533,44.315,44.315,0,0,0,5.1-.295q11.97-1.668,23.254-13.344l10.6,11.48m-38.953,2.159v13.834M835.32,872.676l-8.34,11.676m-72.51,5.691V876.209a32.933,32.933,0,0,1-13.147-3.533l-8.34,11.676m-14.326-10.4,10.5-10.793,3.238,3.336a41.109,41.109,0,0,0,8.929,6.181m13.147,3.533a41.824,41.824,0,0,0,5.005-.295q11.97-1.668,23.352-13.344l10.5,11.48m-22.076-1.177,6.181,11.872"/></g></g></svg>