<svg xmlns="http://www.w3.org/2000/svg" width="159.444" height="51.285" viewBox="0 0 159.444 51.285"><defs><style>.a{fill:none;stroke:#1d1d1b;stroke-linecap:round;stroke-linejoin:round;stroke-width:2.5px;}.b{fill:#f7e4a6;}</style></defs><g transform="translate(-1018.542 -4091)"><path class="a" d="M555.548,860.809a3.735,3.735,0,0,1,0,4.958c-4.945,5.582-18.187,18.654-33.745,18.654s-28.8-13.072-33.744-18.654a3.735,3.735,0,0,1,0-4.958c4.945-5.582,18.186-18.654,33.744-18.654S550.6,855.227,555.548,860.809Z" transform="translate(532.882 3256.614)"/><circle class="b" cx="18.655" cy="18.655" r="18.655" transform="translate(1029.755 4091)"/><path class="a" d="M642.7,860.809a3.735,3.735,0,0,1,0,4.958c-4.945,5.582-18.186,18.654-33.744,18.654s-28.8-13.072-33.744-18.654a3.733,3.733,0,0,1,0-4.958c4.944-5.582,18.186-18.654,33.744-18.654S637.759,855.227,642.7,860.809Z" transform="translate(532.882 3256.614)"/><circle class="b" cx="18.655" cy="18.655" r="18.655" transform="translate(1116.912 4091)"/></g></svg>